HIERARCHY
ROOT Hips
{
	OFFSET -30.366390 91.414970 263.936096
	CHANNELS 6 Xposition Yposition Zposition Zrotation Yrotation Xrotation 
	JOINT LeftUpLeg
	{
		OFFSET 0.103456 1.857826 10.548504
		CHANNELS 3 Xrotation Yrotation Zrotation
		JOINT LeftLeg
		{
			OFFSET 43.499996 -0.000038 0.000006
			CHANNELS 3 Xrotation Yrotation Zrotation
			JOINT LeftFoot
			{
				OFFSET 42.372192 0.000011 -0.000004
				CHANNELS 3 Xrotation Yrotation Zrotation
				JOINT LeftToe
				{
					OFFSET 17.300018 0.000006 0.000004
					CHANNELS 3 Xrotation Yrotation Zrotation
					End Site
					{
						OFFSET 0.000000 0.000000 0.000000
					}
				}
			}
		}
	}
	JOINT RightUpLeg
	{
		OFFSET 0.103455 1.857819 -10.548502
		CHANNELS 3 Xrotation Yrotation Zrotation
		JOINT RightLeg
		{
			OFFSET 43.500038 -0.000031 0.000011
			CHANNELS 3 Xrotation Yrotation Zrotation
			JOINT RightFoot
			{
				OFFSET 42.372261 -0.000008 0.000014
				CHANNELS 3 Xrotation Yrotation Zrotation
				JOINT RightToe
				{
					OFFSET 17.299999 -0.000004 0.000004
					CHANNELS 3 Xrotation Yrotation Zrotation
					End Site
					{
						OFFSET 0.000000 0.000000 0.000000
					}
				}
			}
		}
	}
	JOINT Spine
	{
		OFFSET 6.901965 -2.603737 -0.000000
		CHANNELS 3 Xrotation Yrotation Zrotation
		JOINT Spine1
		{
			OFFSET 12.588105 0.000013 0.000001
			CHANNELS 3 Xrotation Yrotation Zrotation
			JOINT Spine2
			{
				OFFSET 12.343203 0.000010 -0.000000
				CHANNELS 3 Xrotation Yrotation Zrotation
				JOINT Neck
				{
					OFFSET 25.832893 -0.000038 0.000001
					CHANNELS 3 Xrotation Yrotation Zrotation
					JOINT Head
					{
						OFFSET 11.766606 0.000028 0.000001
						CHANNELS 3 Xrotation Yrotation Zrotation
						End Site
						{
							OFFSET 0.000000 0.000000 0.000000
						}
					}
				}
				JOINT LeftShoulder
				{
					OFFSET 19.745897 -1.480375 6.000107
					CHANNELS 3 Xrotation Yrotation Zrotation
					JOINT LeftArm
					{
						OFFSET 11.284126 -0.000009 -0.000017
						CHANNELS 3 Xrotation Yrotation Zrotation
						JOINT LeftForeArm
						{
							OFFSET 33.000046 0.000006 0.000030
							CHANNELS 3 Xrotation Yrotation Zrotation
							JOINT LeftHand
							{
								OFFSET 25.200006 0.000034 0.000015
								CHANNELS 3 Xrotation Yrotation Zrotation
								End Site
								{
									OFFSET 0.000000 0.000000 0.000000
								}
							}
						}
					}
				}
				JOINT RightShoulder
				{
					OFFSET 19.746096 -1.480394 -6.000075
					CHANNELS 3 Xrotation Yrotation Zrotation
					JOINT RightArm
					{
						OFFSET 11.284135 -0.000006 -0.000006
						CHANNELS 3 Xrotation Yrotation Zrotation
						JOINT RightForeArm
						{
							OFFSET 33.000095 0.000018 0.000006
							CHANNELS 3 Xrotation Yrotation Zrotation
							JOINT RightHand
							{
								OFFSET 25.199783 0.000116 0.000436
								CHANNELS 3 Xrotation Yrotation Zrotation
								End Site
								{
									OFFSET 0.000000 0.000000 0.000000
								}
							}
						}
					}
				}
			}
		}
	}
}
MOTION
Frames: 17
Frame Time: 0.033333
-31.346609 82.501900 -305.952087 94.442815 19.173700 112.848023 165.512914 -0.531800 172.385328 -60.121634 -0.091898 -11.558952 91.123582 7.431098 -3.300799 21.454560 0.003107 0.000018 158.171472 11.202903 -166.699332 -73.902462 -6.436351 10.582330 77.138893 -5.824004 5.322869 21.454551 -0.003094 0.000001 12.165175 -0.379547 0.660944 14.313224 -0.837954 1.269779 13.995165 -0.830406 1.274801 -9.332248 4.065319 3.605881 -12.727856 0.305030 4.929130 138.735977 -72.917208 40.921313 3.333840 59.802404 22.908724 -51.156782 -14.336130 1.773978 8.466672 -11.333563 25.571023 169.887036 76.325581 -8.924910 5.589518 -62.533408 -15.103690 -101.743509 0.059916 -2.831420 4.148460 -1.770962 -39.764166 
-32.699520 85.161209 -311.438812 94.114597 18.969973 112.546020 165.395134 -0.544305 173.166701 -51.584126 -1.393899 -11.131337 82.294470 7.627895 -0.843608 21.454560 0.003108 0.000017 165.633044 10.349306 -165.651294 -75.446160 -5.960169 8.764675 76.937976 -3.961377 7.513655 21.454555 -0.003086 -0.000002 11.853487 -0.151858 0.795079 13.691504 -0.396779 1.566518 13.373516 -0.387446 1.568878 -9.288926 4.161539 2.684388 -11.719804 0.569351 3.965632 139.349137 -73.127004 40.281198 3.951527 60.732874 19.822903 -52.727489 -14.459570 1.834719 7.977890 -12.121060 25.974281 170.851076 76.720571 -7.926215 3.779768 -61.439437 -17.445837 -101.098302 0.240635 -2.815432 4.351110 -1.824733 -41.222080 
-34.303310 88.231796 -317.246887 93.897889 17.929841 112.818975 165.203985 0.003000 175.222793 -40.827442 -2.840491 -11.355790 68.808815 8.228012 -0.269700 21.454555 0.003109 0.000017 172.834413 8.963501 -163.741027 -73.147890 -5.732370 7.200607 74.756448 -2.009860 10.038625 21.454551 -0.003095 0.000005 11.425238 0.009039 0.804744 12.837128 -0.071319 1.605475 12.519170 -0.061755 1.605861 -9.244110 4.226701 1.835906 -11.307112 0.516464 3.168306 139.322581 -73.155301 40.305909 4.896315 60.961317 18.706872 -54.073020 -14.461739 1.880874 7.645489 -13.306174 26.075939 173.244033 76.994673 -5.474780 2.831494 -60.334667 -19.695790 -101.670603 0.008719 -2.824627 5.231292 -2.814014 -37.230238 
-36.120110 90.602859 -323.369812 93.547794 16.221604 112.748050 164.405303 0.042211 177.481687 -30.016745 -3.941363 -11.399863 53.926696 7.082355 -3.482767 21.454558 0.003111 0.000018 178.088850 7.038698 -162.965322 -68.917872 -5.402050 4.780266 72.551096 0.492245 11.938329 21.454546 -0.003084 -0.000002 10.930740 0.100821 0.813757 11.849461 0.117768 1.633515 11.531497 0.127483 1.632773 -9.104002 4.286584 1.194733 -11.582773 0.243227 2.639770 139.262298 -73.215427 40.362409 5.338629 60.440078 18.577302 -55.554901 -14.238930 1.917645 7.648201 -13.797010 25.620130 175.188287 77.052300 -3.488599 2.289935 -58.877658 -21.728713 -103.235809 -0.535762 -2.855908 5.634865 -2.803974 -29.566670 
-37.815441 91.603828 -329.537415 92.682587 14.748928 111.688968 163.363481 -1.754400 179.503341 -23.485172 -4.457397 -9.949589 49.677458 -0.077202 -14.730655 21.454568 0.003114 0.000020 -178.102456 4.573699 -163.306927 -62.986898 -4.960726 1.969835 70.863513 3.520621 14.460653 21.454557 -0.003081 -0.000009 10.499690 0.252532 0.875815 10.989866 0.420743 1.771638 10.671949 0.431292 1.769058 -8.800123 4.418621 0.899346 -12.224554 -0.197934 2.527666 139.802006 -73.364319 39.801940 5.511894 59.425596 18.441116 -57.764522 -13.547655 1.950083 7.620440 -13.188638 25.354885 175.307132 77.252028 -3.361810 1.369214 -57.098151 -23.285411 -105.421402 -1.247414 -2.902666 5.295269 -1.728737 -21.246838 
-39.505360 91.351784 -335.904297 92.495296 13.558978 109.988032 161.577318 -2.580207 -179.960800 -25.402240 -4.638256 -11.754112 54.620818 0.691610 -17.466300 21.454551 0.003108 0.000017 -175.097814 3.082993 -163.559986 -55.493928 -4.446464 0.568216 67.856871 4.793438 14.075745 21.454553 -0.003098 -0.000001 10.276455 0.257155 0.883001 10.543542 0.432785 1.785732 10.225591 0.443424 1.783082 -8.627600 4.667226 0.845127 -12.725715 -0.582604 2.684290 139.988101 -73.500642 39.601963 5.397877 57.910565 17.757389 -60.952110 -12.494572 1.996478 7.206185 -11.740072 25.854735 174.682976 77.721617 -3.984687 -0.872176 -55.553771 -23.534059 -107.841802 -1.955044 -2.959463 4.393664 -0.756035 -13.918359 
-41.263149 89.391159 -342.742706 93.350005 12.525208 107.692993 158.416252 -2.621506 178.148464 -35.947931 -3.899804 -13.375913 64.382572 3.921583 -16.148288 21.454553 0.003106 0.000014 -173.355392 2.792900 -163.461781 -48.159227 -3.978697 0.303272 77.881403 1.688868 6.853945 21.454553 -0.003090 -0.000001 10.268381 0.020380 0.872147 10.523609 -0.038600 1.742488 10.205687 -0.028219 1.742684 -8.901008 4.934383 0.799608 -12.667094 -0.533283 2.729062 138.453084 -73.663495 41.149199 5.005761 55.915187 16.655280 -64.803523 -11.338052 2.065342 6.801561 -9.815691 26.842833 174.696459 78.073454 -3.960708 -3.884174 -54.402764 -22.388844 -110.057597 -2.518596 -3.016612 3.153278 -0.878525 -8.091129 
-43.040531 87.412178 -349.424591 92.756284 12.321328 104.645998 156.681343 -4.971698 175.186511 -49.104388 -2.603513 -13.545267 73.338016 5.861949 -13.710901 21.454558 0.003107 0.000018 -175.125340 2.128206 -164.053084 -45.561173 -3.692038 0.622338 93.092924 0.191762 4.189235 21.454553 -0.003091 0.000001 10.343142 0.070931 0.938889 10.673894 0.054966 1.880291 10.355986 0.066174 1.879906 -9.550409 5.053482 0.752945 -11.849327 0.008903 2.573637 136.187210 -73.862759 43.433965 4.156652 54.000121 14.916372 -68.460858 -10.232389 2.134789 6.936713 -7.863155 27.794429 175.397222 77.819917 -3.253717 -6.874499 -53.812947 -19.985753 -111.232212 -2.828650 -3.045807 2.197145 -2.374853 -4.977190 
-44.924271 86.430267 -356.031006 91.553604 12.246648 101.498052 156.804273 -7.740705 172.990660 -60.809639 -1.307610 -13.726627 77.353245 6.867999 -11.585671 21.454562 0.003111 0.000018 179.950295 0.818704 -165.759812 -45.986806 -4.009858 0.614147 97.806533 -0.074939 2.805319 21.454553 -0.003091 0.000000 10.397501 0.278809 0.831383 10.785756 0.478928 1.685127 10.467805 0.488945 1.682203 -9.937282 5.107078 0.858197 -10.564580 0.513169 2.553398 135.517182 -73.974138 44.104666 3.091725 52.855887 12.842829 -70.548689 -9.523507 2.170880 7.468209 -6.574239 28.519127 176.551538 76.906147 -2.100985 -9.269997 -53.963767 -17.242806 -110.423197 -2.679484 -3.021276 2.329763 -4.169397 -6.891193 
-46.767830 86.746521 -362.286499 90.509002 12.340450 99.517946 160.082818 -8.924000 172.647252 -68.109369 -0.697166 -14.057299 80.612310 7.614367 -10.203923 21.454553 0.003106 0.000018 175.017901 -0.380794 -166.718033 -46.069107 -3.599562 0.501950 95.080468 -0.141001 0.883100 21.454551 -0.003096 -0.000001 10.405881 0.546202 0.297436 10.802374 1.062254 0.644622 10.484225 1.066009 0.638188 -9.190194 5.525887 1.065155 -9.479908 0.336021 2.926252 136.020991 -73.993065 43.591862 2.373918 53.010748 11.639000 -69.929785 -9.630170 2.152920 7.886092 -6.570940 29.103402 178.584298 75.711534 -0.052660 -9.768642 -55.195647 -16.122528 -107.796504 -1.907924 -2.960753 3.342908 -4.039971 -15.048503 
-48.348919 88.274986 -368.181610 90.501017 12.450136 98.531011 165.935840 -7.446791 173.476491 -70.321128 -0.935891 -13.924458 81.193280 7.760469 -9.151956 21.454557 0.003103 0.000019 172.454340 -0.516589 -166.551240 -42.341272 -2.864896 -0.208108 88.462657 0.096167 -0.686003 21.454553 -0.003090 -0.000001 10.334340 0.619116 -0.468297 10.651579 1.278762 -0.877611 10.333446 1.273306 -0.885326 -7.096486 6.605137 1.174798 -8.938722 -0.598832 3.573338 135.094571 -74.172050 44.516858 1.739402 54.338820 12.086457 -66.935157 -10.448988 2.088525 8.059568 -7.655323 29.462694 -178.383122 74.641018 3.031609 -6.642429 -57.382339 -17.854302 -104.914595 -0.849518 -2.908047 3.779620 -1.105056 -26.545588 
-49.553150 90.571869 -374.014709 90.861289 12.116570 96.800043 172.846707 -4.417212 174.109308 -67.894437 -1.815723 -13.425769 78.282690 7.054428 -9.966503 21.454553 0.003114 0.000016 171.129283 0.126096 -166.460302 -35.553795 -1.506186 -1.863055 78.464708 0.713961 -2.312138 21.454555 -0.003083 0.000001 10.122653 0.505618 -0.954477 10.224029 1.093640 -1.860563 9.906049 1.082240 -1.867139 -4.602001 8.120041 1.231724 -8.667069 -1.885916 4.338858 132.423230 -74.686336 47.180857 0.689072 55.835823 14.168880 -63.583522 -11.211066 2.009300 8.239215 -8.780130 29.368813 -175.317296 74.005837 6.167185 0.555497 -59.597273 -21.852622 -103.269298 -0.179531 -2.882174 3.249425 2.491239 -35.247376 
-50.467991 92.628662 -380.033112 91.273286 11.138606 93.378050 178.959084 -0.775100 173.314315 -62.751639 -2.722036 -12.978280 74.501771 5.687194 -12.937150 21.454555 0.003100 0.000022 169.047906 1.286701 -167.277999 -28.452507 0.385652 -4.190453 66.726864 2.576452 -1.092385 21.454551 -0.003090 -0.000003 9.824273 0.258702 -0.980400 9.630777 0.598151 -1.935831 9.312860 0.586311 -1.939421 -2.936093 9.606009 1.409272 -8.494883 -3.186476 5.217835 129.997816 -75.326536 49.580108 -0.239999 56.222200 17.317390 -62.422444 -11.115353 1.958264 8.439840 -9.057487 29.009729 -173.323427 74.124232 8.215391 9.556025 -60.980359 -26.141934 -103.177883 -0.205796 -2.876319 3.163709 4.668578 -37.074540 
-51.359039 93.334579 -386.163086 91.973292 10.064711 89.483025 -176.513754 3.128690 171.366181 -56.429175 -3.298543 -12.326769 72.569715 4.247765 -15.708901 21.454558 0.003109 0.000022 165.955470 2.698001 -167.847924 -23.806001 1.446399 -5.657190 60.296855 8.136448 9.092620 21.454553 -0.003093 -0.000000 9.601672 -0.076229 -0.851620 9.191135 -0.084557 -1.706573 8.873188 -0.095008 -1.706049 -2.550651 10.819669 1.645292 -8.634501 -4.322755 6.115333 128.806002 -75.710782 50.751239 0.070436 54.883708 20.842124 -64.726383 -10.157267 1.981587 8.348946 -8.547470 28.564534 -172.386257 75.008639 9.184499 17.052056 -61.253164 -29.224675 -104.129997 -0.698744 -2.884010 4.166874 5.727659 -32.908937 
-52.388390 92.519691 -392.171509 93.285016 9.563154 86.613048 -172.800357 6.842809 169.726622 -48.961760 -3.656913 -11.814649 70.562254 2.380884 -19.696138 21.454565 0.003111 0.000018 162.591902 4.343912 -167.244941 -25.151712 0.544225 -3.059101 67.107845 12.534454 27.602283 21.454555 -0.003088 0.000001 9.538384 -0.505681 -0.860754 9.071458 -0.942283 -1.758504 8.753480 -0.953025 -1.752784 -3.114378 11.700211 1.735598 -9.040533 -5.117772 6.775596 127.816499 -75.755834 51.746944 1.648193 52.400955 23.750035 -69.904944 -8.647079 2.084196 7.851804 -7.829683 27.675319 -171.691531 76.226229 9.904785 20.964415 -60.145621 -30.643739 -105.513903 -1.268031 -2.905295 5.368553 6.625427 -26.562998 
-53.730160 91.130173 -398.637695 93.089195 9.257871 85.222039 -171.441245 8.582188 169.768095 -40.840874 -3.958489 -12.234074 68.317574 5.242919 -11.185826 21.454558 0.003109 0.000017 159.186083 4.718392 -166.591497 -32.305743 -1.958762 -1.252542 75.355667 7.843473 23.821349 21.454557 -0.003107 -0.000001 9.601960 -0.602827 -0.979376 9.201381 -1.125833 -2.003631 8.883434 -1.138054 -1.996806 -4.068301 11.983555 1.677074 -9.334829 -5.311255 6.973951 126.430203 -75.700339 53.151702 2.999016 50.023431 24.517184 -76.507189 -6.683079 2.223259 7.055859 -7.043283 26.027288 -170.754825 77.269780 10.868404 20.290588 -57.833192 -29.425281 -106.818408 -1.719206 -2.931135 5.767052 7.162431 -20.966528 
-55.291828 88.907677 -405.509094 92.609579 9.111974 85.352045 -171.282102 8.798796 171.798833 -36.857668 -4.376332 -13.149862 84.169855 7.834416 -7.728040 21.454560 0.003111 0.000015 156.057419 5.161595 -167.901090 -43.828511 -4.755890 1.778594 82.747182 1.467635 12.105862 21.454553 -0.003094 -0.000001 9.726644 -0.620331 -1.191675 9.453028 -1.141194 -2.430131 9.135177 -1.155985 -2.423196 -4.846897 11.359111 1.614873 -9.482191 -4.672991 6.611844 125.646630 -75.563831 53.954994 3.708565 48.297647 23.212649 -82.724567 -4.622183 2.348174 5.947754 -5.950104 23.789160 -169.825018 77.739376 11.819573 17.158958 -54.706421 -26.632029 -107.172512 -1.882125 -2.935322 5.241759 6.695887 -17.591996 
